<?xml version="1.0" encoding="utf-8"?>
<!-- Generator: Adobe Illustrator 23.0.3, SVG Export Plug-In . SVG Version: 6.00 Build 0)  -->
<svg version="1.1" id="Layer_1" xmlns="http://www.w3.org/2000/svg" xmlns:xlink="http://www.w3.org/1999/xlink" x="0px" y="0px"
	 viewBox="0 0 330 148" style="enable-background:new 0 0 330 148;" xml:space="preserve">
<style type="text/css">
	.st0{enable-background:new    ;}
	.st1{fill:#111111;}
</style>
<path d="M2.2,1.6L0,3.1v71.4c0,53.2,0.3,71.6,1.2,72.1c2,1.3,15.2,1.6,18,0.5L22,146v-25.3c0-18.7,0.3-25.7,1.3-26.9
	c0.7-1,3.5-1.8,7.4-2.2c12.1-1.1,21.7-7.8,26.7-18.5c1.9-4.3,2.1-6.2,2.1-27.1c-0.1-18.7-0.3-23.2-1.7-26.8
	C52.2,5.2,41.1,0.1,16.5,0C7.2,0,3.9,0.4,2.2,1.6z M32.5,23C37,24.7,38,29,38,47.9c0,16.8,0,17-2.6,20.1c-2.4,2.8-3.1,3.1-7.8,2.8
	l-5.1-0.3l-0.3-23.4c-0.2-18.1,0.1-23.6,1-24.3C25,21.7,29.3,21.8,32.5,23z"/>
<path d="M86.6,0.9C85,1.2,83.4,2.2,82.9,3c-0.4,0.8-2.4,13.4-4.4,28c-1.9,14.6-6.2,45.5-9.5,68.7s-6,43.3-6,44.7
	c0,2.2,0.5,2.5,5.5,3.1c3,0.4,7.5,0.4,10,0.1c5.1-0.8,4.8,0.2,6.5-18.6c1.7-18,1.2-17,7.5-17c3,0,5.6,0.4,5.9,0.8
	c0.3,0.5,1.5,8.1,2.6,16.8c1.6,11.8,2.5,16.2,3.7,17.2c1.8,1.3,9.4,1.6,15.7,0.5l3.8-0.6l-0.5-4.6C122.5,133,104,6.4,103.5,4.3
	C102.7,0.8,94.5-0.9,86.6,0.9z M94.1,49.2c0.4,1.2,3.5,46.5,3.2,47c-0.5,1-6.5,1-7.9,0c-0.8-0.5-0.6-7.2,0.6-23.7
	c1-12.7,1.8-23.1,1.9-23.3C92,49.1,92.5,49,93,49C93.6,49,94,49.1,94.1,49.2z"/>
<path d="M195.3,1.4c-10.2,2.5-17.8,9.9-20.8,19.9c-2.3,7.7-2.2,99,0.1,106.7c2.2,7.4,10,15.2,17.4,17.4c10.5,3.1,19.9,1.7,24.9-3.8
	c3.3-3.6,4.7-3.3,7.1,1.4c1.7,3.3,2.6,4,4.9,4c1.7,0,3.1-0.6,3.5-1.6c0.3-0.9,0.6-17.4,0.6-36.9c0-31.6-0.2-35.4-1.7-36.6
	c-1.8-1.6-18.2-2-24.5-0.6l-3.8,0.8v6.4c0,6.2,0.1,6.5,2.8,7.1c1.5,0.3,3.3,0.7,4,1c0.9,0.2,1.2,4.5,1.2,16.7
	c0,15.1-0.2,16.6-2.1,19.1c-2.7,3.4-8.6,3.7-11.5,0.5c-1.8-2-1.9-4.3-1.9-48.9V27.2l2.4-2.6c3.3-3.6,8.2-3.5,11,0
	c1.7,2.2,2.1,4.1,2.1,10.4c0,6.2,0.3,7.9,1.6,8.4c2.5,1,15,0.7,18-0.4l2.6-1l-0.4-9.8c-0.5-11.4-2.9-17.9-8.6-23.5
	C217,1.7,205.5-1.2,195.3,1.4z"/>
<path d="M251.3,1C250,1.5,249,2.5,249,3.2c-0.1,127.5,0,143.2,1.2,144c0.7,0.4,11.9,0.7,24.8,0.5l23.5-0.2v-10v-10l-12.9-0.3
	c-7.5-0.1-13.5-0.7-14.3-1.4c-1.8-1.5-1.9-41.8-0.1-43.6c0.7-0.7,4.1-1.2,8.5-1.2c8.6,0,9.4-0.8,9.2-9.7
	c-0.2-10.6-0.3-10.7-9.4-11.3l-8-0.5v-19v-19l13-0.3c15.4-0.3,15.5-0.3,15.5-10.5c0-11.4,1.5-10.7-24.3-10.6
	C263.5,0.1,252.5,0.5,251.3,1z"/>
<path d="M136.5,2.2c-0.3,0.7-0.4,33.5-0.3,72.8l0.3,71.5H147h10.5V74V1.5l-10.3-0.3C139.6,1,136.8,1.3,136.5,2.2z"/>
<g class="st0">
	<path class="st1" d="M316.6,127.5c1.6,0,3.2,0.4,4.7,1.2s2.7,2,3.6,3.5c0.9,1.5,1.3,3.1,1.3,4.8c0,1.7-0.4,3.2-1.3,4.8
		c-0.8,1.5-2,2.7-3.5,3.6c-1.5,0.8-3.1,1.3-4.8,1.3s-3.3-0.4-4.8-1.3c-1.5-0.8-2.7-2-3.6-3.6c-0.8-1.5-1.3-3.1-1.3-4.8
		c0-1.7,0.4-3.3,1.3-4.8c0.9-1.5,2.1-2.7,3.6-3.5S315,127.5,316.6,127.5z M316.6,129.1c-1.3,0-2.7,0.3-3.9,1c-1.3,0.7-2.3,1.7-3,3
		s-1.1,2.6-1.1,4c0,1.4,0.4,2.7,1.1,4c0.7,1.3,1.7,2.3,3,3s2.6,1.1,4,1.1s2.7-0.4,4-1.1s2.3-1.7,3-3c0.7-1.3,1.1-2.6,1.1-4
		c0-1.4-0.4-2.7-1.1-4c-0.7-1.3-1.7-2.3-3-3S318,129.1,316.6,129.1z M312.4,142.4v-10.3h3.6c1.2,0,2.1,0.1,2.6,0.3
		c0.5,0.2,1,0.5,1.3,1c0.3,0.5,0.5,1,0.5,1.5c0,0.8-0.3,1.4-0.8,2c-0.5,0.6-1.3,0.9-2.1,0.9c0.4,0.2,0.7,0.3,0.9,0.5
		c0.4,0.4,0.9,1.1,1.5,2l1.3,2h-2l-0.9-1.6c-0.7-1.3-1.3-2.1-1.7-2.4c-0.3-0.2-0.8-0.4-1.3-0.4h-1v4.4H312.4z M314.1,136.6h2
		c1,0,1.6-0.1,2-0.4c0.4-0.3,0.5-0.7,0.5-1.1c0-0.3-0.1-0.6-0.3-0.8c-0.2-0.2-0.4-0.4-0.7-0.5c-0.3-0.1-0.9-0.2-1.7-0.2h-1.9V136.6z
		"/>
</g>
</svg>
